<svg aria-hidden="true" style="position: absolute; width: 0; height: 0; overflow: hidden;" version="1.1" xmlns="http://www.w3.org/2000/svg" xmlns:xlink="http://www.w3.org/1999/xlink">
<defs>
<symbol id="icon-animal" viewBox="0 0 36 32">
<path d="M17.781 13.778c-5.512 0-13.27 8.521-13.27 13.902-0.061 2.423 1.796 3.875 4.923 3.875 3.389 0 5.632-1.743 8.347-1.743 2.743 0 4.993 1.743 8.347 1.743 3.062 0 4.982-1.45 4.982-3.871-0.058-5.378-7.815-13.906-13.329-13.906zM7.559 12.904c-0.72-2.404-2.951-3.966-4.973-3.48s-3.075 2.828-2.355 5.23c0.72 2.41 2.951 3.972 4.973 3.486s3.070-2.833 2.355-5.236zM13.441 11.459c2.144-0.564 3.22-3.41 2.396-6.484s-3.229-4.937-5.381-4.435c-2.144 0.564-3.22 3.41-2.396 6.484 0.826 3.012 3.228 5.005 5.381 4.435zM32.981 9.425c-2.022-0.424-4.253 1.076-4.973 3.48s0.33 4.748 2.352 5.234c2.022 0.424 4.244-1.076 4.973-3.48 0.717-2.408-0.394-4.748-2.352-5.234zM22.121 11.459c2.090 0.564 4.557-1.424 5.381-4.435s-0.252-5.92-2.396-6.484c-2.090-0.564-4.557 1.424-5.381 4.435-0.826 3.012 0.25 5.921 2.396 6.484z"></path>
</symbol>
<symbol id="icon-arrow-bottom" viewBox="0 0 48 32">
<path d="M23.998 30c-1.024 0-2.048-0.391-2.828-1.172l-20-20c-1.563-1.563-1.563-4.094 0-5.656s4.094-1.563 5.656 0l17.171 17.178 17.175-17.175c1.563-1.563 4.094-1.563 5.656 0s1.563 4.094 0 5.656l-20 20c-0.781 0.781-1.806 1.169-2.831 1.169z"></path>
</symbol>
<symbol id="icon-arrow-left" viewBox="0 0 39 32">
<path d="M1.671 14.116l13.333-13.333c0.517-0.525 1.2-0.783 1.883-0.783s1.365 0.26 1.885 0.781c1.042 1.042 1.042 2.729 0 3.771l-8.785 8.781h25.567c1.473 0 2.666 1.192 2.666 2.667s-1.194 2.667-2.666 2.667h-25.567l8.783 8.783c1.042 1.042 1.042 2.729 0 3.771s-2.729 1.042-3.771 0l-13.333-13.333c-1.038-1.046-1.038-2.729 0.004-3.771z"></path>
</symbol>
<symbol id="icon-arrow-right" viewBox="0 0 39 32">
<path d="M37.44 17.884l-13.333 13.333c-0.517 0.525-1.2 0.783-1.883 0.783s-1.365-0.26-1.885-0.781c-1.042-1.042-1.042-2.729 0-3.771l8.785-8.781h-25.567c-1.473 0-2.667-1.192-2.667-2.667s1.194-2.667 2.667-2.667h25.567l-8.783-8.783c-1.042-1.042-1.042-2.729 0-3.771s2.729-1.042 3.771 0l13.333 13.333c1.038 1.046 1.038 2.729-0.004 3.771z"></path>
</symbol>
<symbol id="icon-arrow-top" viewBox="0 0 48 32">
<path d="M24.002 2c1.024 0 2.048 0.391 2.828 1.172l20 20c1.562 1.563 1.562 4.094 0 5.656s-4.094 1.563-5.656 0l-17.171-17.178-17.175 17.175c-1.563 1.562-4.094 1.562-5.656 0s-1.563-4.094 0-5.656l20-20c0.781-0.781 1.806-1.169 2.831-1.169z"></path>
</symbol>
<symbol id="icon-check" viewBox="0 0 44 32">
<path d="M42.12 1.882c1.172 1.172 1.172 3.066 0 4.237l-24 24c-1.172 1.172-3.066 1.172-4.238 0l-12.003-12c-1.171-1.172-1.171-3.066 0-4.238s3.071-1.172 4.243 0l9.794 9.872 21.966-21.872c1.172-1.174 3.066-1.174 4.238 0z"></path>
</symbol>
<symbol id="icon-delete" viewBox="0 0 32 32">
<path d="M29.789 2.211c1.173 1.173 1.172 3.072 0.001 4.243l-9.546 9.546 9.546 9.546c1.173 1.173 1.171 3.071-0.001 4.242s-3.069 1.173-4.242 0.001l-9.546-9.546-9.546 9.546c-1.171 1.171-3.071 1.172-4.243-0.001s-1.171-3.071 0.001-4.242l9.546-9.546-9.546-9.546c-1.173-1.173-1.172-3.072-0.001-4.243s3.071-1.172 4.243 0.001l9.546 9.546 9.546-9.546c1.173-1.174 3.069-1.174 4.242-0.001z"></path>
</symbol>
<symbol id="icon-select" viewBox="0 0 32 32">
<path d="M31.6 16c0 1.327-1.075 2.401-2.4 2.401h-10.8v10.8c0 1.327-1.075 2.399-2.4 2.399s-2.4-1.072-2.4-2.399v-10.8h-10.8c-1.325 0-2.4-1.074-2.4-2.401s1.075-2.399 2.4-2.399h10.8v-10.8c0-1.327 1.075-2.401 2.4-2.401s2.4 1.074 2.4 2.401v10.8h10.8c1.328-0.001 2.4 1.072 2.4 2.399z"></path>
</symbol>
<symbol id="icon-view" viewBox="0 0 39 32">
<path d="M18.986 9.508c0.19-0.020 0.38-0.027 0.57-0.027 3.599 0 6.519 2.859 6.519 6.519 0 3.599-2.92 6.519-6.519 6.519-3.66 0-6.519-2.92-6.519-6.519 0-0.19 0.007-0.38 0.027-0.57 0.632 0.306 1.365 0.57 2.146 0.57 2.397 0 4.346-1.949 4.346-4.346 0-0.781-0.265-1.514-0.57-2.146zM32.635 6.263c3.178 2.947 5.303 6.417 6.308 8.902 0.224 0.536 0.224 1.134 0 1.67-1.005 2.424-3.13 5.894-6.308 8.902-3.198 2.974-7.592 5.473-13.078 5.473s-9.88-2.499-13.077-5.473c-3.178-3.008-5.302-6.478-6.312-8.902-0.223-0.536-0.223-1.134 0-1.67 1.010-2.485 3.134-5.955 6.312-8.902 3.197-2.971 7.59-5.473 13.077-5.473s9.88 2.502 13.078 5.473zM19.556 6.222c-5.398 0-9.778 4.38-9.778 9.778s4.38 9.778 9.778 9.778c5.398 0 9.778-4.38 9.778-9.778s-4.38-9.778-9.778-9.778z"></path>
</symbol>
<symbol id="icon-logo-lable" viewBox="0 0 24 32">
<path d="M21.983 11.62c-1.268-5.448-4.504-9.196-9.72-11.228-0.36-0.14-1.108-0.392-1.108-0.392s-0.748 0.252-1.108 0.392c-5.212 2.032-8.448 5.78-9.72 11.228-0.296 1.264-0.38 2.556-0.296 3.848 0.224 3.512 1.488 6.608 3.824 9.248 1.904 2.156 4.244 3.648 7.008 4.464h0.584c2.764-0.812 5.1-2.308 7.008-4.464 2.332-2.64 3.6-5.736 3.824-9.248 0.080-1.292-0.004-2.584-0.296-3.848zM12.351 27.144c-0.080 0.032-0.164 0.056-0.268 0.088v-7.772l4.992-4.992c0.384-0.384 0.36-1.028-0.080-1.376-0.372-0.296-0.908-0.248-1.244 0.088l-3.668 3.668v-8.176c0-0.256-0.104-0.484-0.272-0.652s-0.396-0.272-0.652-0.272c-0.256 0-0.484 0.104-0.652 0.272s-0.272 0.396-0.272 0.652v8.176l-3.668-3.668c-0.336-0.336-0.872-0.384-1.244-0.088-0.436 0.348-0.464 0.992-0.080 1.376l4.992 4.992v7.772c-0.104-0.032-0.188-0.056-0.268-0.088-5.864-2.424-9.332-8.768-8.064-15 1.024-5.044 4.048-8.46 8.86-10.284 0.136-0.052 0.396-0.124 0.396-0.124s0.26 0.072 0.396 0.124c4.816 1.824 7.836 5.24 8.86 10.284 1.264 6.232-2.2 12.576-8.064 15v0z"></path>
</symbol>
<symbol id="icon-logo" viewBox="0 0 160 32">
<path d="M127.876 1.971c0 1.088-0.883 1.971-1.971 1.971s-1.971-0.883-1.971-1.971c0-1.088 0.883-1.971 1.971-1.971s1.971 0.883 1.971 1.971z"></path>
<path d="M145.997 18.912l1.978-1.978c0 0 1.862 1.978 5.018 1.978s3.149-1.978 3.149-1.978c0 0 0.179-1.862-3.149-1.862s-6.496-1.6-6.496-4.723c0-3.123 3.098-4.531 6.496-4.531s5.709 2.093 5.709 2.093l-1.99 1.99c0 0-1.299-1.235-3.725-1.235-3.386 0-3.232 1.382-3.232 1.382s-0.474 2.163 3.238 2.163c3.712 0 6.304 2.074 6.304 4.531s-1.376 5.024-6.304 5.024c-4.928 0-6.989-2.854-6.989-2.854h-0.006z"></path>
<path d="M66.628 7.257l-1.491 2.797c-1.581-1.19-3.686-1.21-5.101-0.122-1.651 1.267-1.549 3.949-1.549 3.949s-0.006 4.8-0.026 7.584h-3.187v-15.162h3.187v2.022c0.371-0.506 1.146-1.53 2.413-2.022 2.854-1.114 5.529 0.794 5.753 0.954z"></path>
<path d="M98.732 6.266v1.862c-1.376-1.395-3.251-2.253-5.312-2.253-4.211 0-7.488 3.571-7.488 7.974s3.277 7.974 7.488 7.974c2.067 0 3.942-0.858 5.312-2.253v1.862h3.251v-15.162h-3.251v-0.006zM93.874 18.803c-2.682 0-4.858-2.221-4.858-4.954s2.176-4.954 4.858-4.954c2.682 0 4.858 2.221 4.858 4.954s-2.176 4.954-4.858 4.954z"></path>
<path d="M16.026 13.491c0-1.613-0.538-3.104-1.446-4.326l1.683-2.003-2.49-2.086-1.638 1.952c-1.197-0.678-2.592-1.062-4.083-1.062-4.403 0-7.974 3.373-7.974 7.533s3.565 7.533 7.968 7.533c4.749 0.032 4.55 3.149 4.55 3.149s0.077 3.053-4.627 3.053c-4.704 0-4.826-3.546-4.826-3.546h-3.142c0 4.422 3.142 6.694 7.974 6.694s7.974-2.81 7.974-6.202c0-3.155-2.899-4.371-3.302-4.525 2.042-1.363 3.379-3.616 3.379-6.157v-0.006zM8.051 17.978c-2.797 0-4.902-2.010-4.902-4.493s2.106-4.493 4.902-4.493c2.797 0 4.902 2.010 4.902 4.493s-2.106 4.493-4.902 4.493z"></path>
<path d="M83.494 13.491c0-1.613-0.538-3.104-1.446-4.326l1.683-2.003-2.49-2.086-1.638 1.952c-1.197-0.678-2.592-1.062-4.083-1.062-4.403 0-7.974 3.373-7.974 7.533s3.565 7.533 7.968 7.533c4.749 0.032 4.55 3.149 4.55 3.149s0.077 3.053-4.627 3.053c-4.704 0-4.826-3.546-4.826-3.546h-3.142c0 4.422 3.142 6.694 7.974 6.694s7.974-2.81 7.974-6.202c0-3.155-2.899-4.371-3.302-4.525 2.042-1.363 3.379-3.616 3.379-6.157v-0.006zM75.52 17.978c-2.797 0-4.902-2.010-4.902-4.493s2.106-4.493 4.902-4.493c2.797 0 4.902 2.010 4.902 4.493s-2.106 4.493-4.902 4.493z"></path>
<path d="M138.362 18.694c-1.35 0-2.566-0.557-3.43-1.478-0.819-0.87-1.325-2.067-1.325-3.43s0.506-2.56 1.325-3.43c0.864-0.922 2.080-1.472 3.43-1.478 1.35 0 2.566 0.557 3.43 1.472l2.208-2.208c-1.446-1.44-3.437-2.336-5.638-2.336s-4.198 0.896-5.638 2.336c-1.44 1.44-2.336 3.437-2.336 5.638s0.89 4.192 2.336 5.638c1.44 1.446 3.437 2.336 5.638 2.336s4.192-0.89 5.638-2.336l-2.208-2.208c-0.864 0.915-2.080 1.472-3.43 1.472v0.013z"></path>
<path d="M124.237 6.304h3.251v15.162h-3.251v-15.162z"></path>
<path d="M26.362 5.824c-4.403 0-7.968 3.565-7.968 7.968s3.565 7.968 7.968 7.968c2.656 0 5.011-1.299 6.458-3.302l-2.573-1.805c-0.858 1.248-2.278 2.035-3.885 2.035-2.24 0-4.115-1.53-4.621-3.718h12.582v-1.184c0-4.403-3.565-7.968-7.968-7.968l0.006 0.006zM21.837 12.256c0.614-1.997 2.406-3.36 4.525-3.36s3.91 1.37 4.525 3.36h-9.050z"></path>
<path d="M120.588 21.466h-3.251v-7.584c-0.109-1.35-0.237-2.886-1.427-3.917-0.922-0.794-2.227-1.075-3.341-0.832-1.882 0.41-3.36 2.349-3.411 4.749v7.584h-3.251v-15.162h3.251v1.978c0.314-0.333 2.067-2.176 4.877-2.214 0.602-0.006 2.534 0.051 4.166 1.414 2.221 1.856 2.381 4.64 2.381 6.406 0 0.205 0 7.584 0 7.584l0.006-0.006z"></path>
<path d="M44.427 5.837c-4.39 0-7.955 3.558-7.955 7.955s3.558 7.955 7.955 7.955c4.39 0 7.955-3.558 7.955-7.955s-3.558-7.955-7.955-7.955zM44.427 18.682c-2.618 0-4.742-2.099-4.742-4.89s2.125-4.89 4.742-4.89c2.618 0 4.742 2.099 4.742 4.89s-2.118 4.89-4.742 4.89z"></path>
</symbol>
</defs>
</svg>
